# xmcd
#
# Track frame offsets:
# 150
# 3700
# 18857
# 28267
# 51750
# 71282
# 105132
# 119680
# 151282
# 182020
# 186500
# 207230
# 228102
# 234350
# 250452
# 269312
# 289860
# 298672
# 310370
# 324950
#
# Disc length: 4574 seconds
#
# Revision: 0
# Processed by: cddbd v1.5.2PL0 Copyright (c) Steve Scherf et al.
# Submitted via: Audion 3.0.2 (http://www.panic.com/audion/)
#
DISCID=1911dc14
DTITLE=Various Artist - lessthan
DYEAR=1900
DGENRE=
TTITLE0=breakfast/sekoiya30
TTITLE1=z
TTITLE2=z
TTITLE3=z
TTITLE4=z
TTITLE5=z
TTITLE6=z
TTITLE7=z
TTITLE8=ic40/love compresser
TTITLE9=idolpunch/weekend locomotion
TTITLE10=z
TTITLE11=z
TTITLE12=z
TTITLE13=romanporsche/kahanshinKsa2
TTITLE14=z
TTITLE15=z
TTITLE16=z
TTITLE17=z
TTITLE18=yoo/lovesupreme
TTITLE19=ysig/sweet spot
EXTD=
EXTT0=
EXTT1=
EXTT2=
EXTT3=
EXTT4=
EXTT5=
EXTT6=
EXTT7=
EXTT8=
EXTT9=
EXTT10=
EXTT11=
EXTT12=
EXTT13=
EXTT14=
EXTT15=
EXTT16=
EXTT17=
EXTT18=
EXTT19=
PLAYORDER=
